<svg xmlns="http://www.w3.org/2000/svg" viewBox="0 0 20 20"><defs><style>.cls-1{fill:#fff;}</style></defs><g id="Layer_2" data-name="Layer 2"><g id="Layer_1-2" data-name="Layer 1"><path class="cls-1" d="M19,9H17.93A8,8,0,0,0,11,2.07V1A1,1,0,0,0,9,1V2.07A8,8,0,0,0,2.07,9H1a1,1,0,0,0,0,2H2.07A8,8,0,0,0,9,17.93V19a1,1,0,0,0,2,0V17.93A8,8,0,0,0,17.93,11H19a1,1,0,0,0,0-2Zm-4,2h.91A6,6,0,0,1,11,15.91V15a1,1,0,0,0-2,0v.91A6,6,0,0,1,4.09,11H5A1,1,0,0,0,5,9H4.09A6,6,0,0,1,9,4.09V5a1,1,0,0,0,2,0V4.09A6,6,0,0,1,15.91,9H15a1,1,0,0,0,0,2ZM10,9a1,1,0,1,0,1,1A1,1,0,0,0,10,9Z"/></g></g></svg>