<?xml version="1.0" encoding="UTF-8"?><svg id="Layer_1" xmlns="http://www.w3.org/2000/svg" viewBox="0 0 2750.56 469.28"><defs><style>.cls-1,.cls-2{fill:none;stroke-width:40px;}.cls-1,.cls-2,.cls-3{stroke:#fff;}.cls-1,.cls-3{stroke-miterlimit:10;}.cls-2{stroke-linecap:round;stroke-linejoin:round;}.cls-3{fill:#fff;}</style></defs><circle class="cls-1" cx="234.64" cy="234.64" r="161.05"/><line class="cls-2" x1="234.64" y1="449.28" x2="234.64" y2="342.11"/><line class="cls-2" x1="342.11" y1="234.64" x2="449.28" y2="234.64"/><line class="cls-2" x1="234.64" y1="20" x2="234.64" y2="127.18"/><line class="cls-2" x1="127.18" y1="234.64" x2="20" y2="234.64"/><circle class="cls-3" cx="234.64" cy="234.64" r="20"/><path class="cls-3" d="m607.29,262.84h-41.05v-120.14c1.78-.67,4.39-1.33,7.84-2,3.45-.67,7.06-1,10.85-1,7.79,0,13.46,1.39,17.02,4.17,3.56,2.78,5.34,7.73,5.34,14.85v104.12Zm-41.05-9.01h41.05v39.38c0,7.34,2.17,12.57,6.51,15.68,4.34,3.12,10.51,4.67,18.52,4.67,3.56,0,7.39-.44,11.51-1.33,4.11-.89,7.62-2,10.51-3.34,1.55,1.78,3,3.89,4.34,6.34,1.33,2.45,2,5.45,2,9.01,0,6.46-3.06,11.79-9.18,16.02-6.12,4.22-15.63,6.34-28.53,6.34-17.58,0-31.43-3.95-41.55-11.85-10.13-7.89-15.18-20.74-15.18-38.54v-42.38Zm25.03-34.04v-32.37h65.41c.89,1.56,1.84,3.79,2.84,6.67,1,2.89,1.5,5.9,1.5,9.01,0,5.56-1.33,9.74-4,12.51-2.67,2.78-6.12,4.17-10.35,4.17h-55.4Z"/><path class="cls-3" d="m735.76,274.86h-41.05V125.01c1.78-.44,4.34-1,7.68-1.67,3.34-.67,7.01-1,11.01-1,7.79,0,13.46,1.39,17.02,4.17,3.56,2.78,5.34,7.73,5.34,14.85v133.49Zm-41.05-21.02h41.05v87.43c-1.78.67-4.34,1.28-7.68,1.83-3.34.55-7.01.83-11.01.83-7.57,0-13.18-1.39-16.85-4.17s-5.51-7.73-5.51-14.85v-71.08Zm145.84,20.69h-41.05v-30.04c0-11.35-3.06-19.57-9.18-24.7-6.12-5.12-13.85-7.68-23.19-7.68-7.57,0-14.52,1.45-20.86,4.34-6.34,2.89-11.85,6.23-16.52,10.01l-2.34-33.37c5.12-3.11,11.68-6.17,19.69-9.18s17.02-4.51,27.03-4.51c20.02,0,36.09,5.23,48.22,15.69,12.12,10.46,18.19,26.25,18.19,47.39v32.04Zm-41.05-20.36h41.05v87.1c-1.78.67-4.4,1.28-7.84,1.83-3.45.55-7.07.83-10.85.83-7.79,0-13.46-1.39-17.02-4.17-3.56-2.78-5.34-7.73-5.34-14.85v-70.75Z"/><path class="cls-3" d="m943.67,179.41c21.8,0,39.15,4.62,52.06,13.85,12.9,9.23,19.36,23.75,19.36,43.55v76.76c0,5.34-1.28,9.57-3.84,12.68-2.56,3.12-5.84,5.9-9.84,8.34-6.23,3.56-14.13,6.51-23.69,8.84-9.57,2.34-20.36,3.5-32.37,3.5-22.25,0-39.71-4.29-52.39-12.85-12.68-8.56-19.02-21.3-19.02-38.21,0-14.9,4.72-26.31,14.18-34.21,9.45-7.89,23.19-12.73,41.21-14.52l45.39-4.67v-6.01c0-8.9-3.06-15.35-9.18-19.36-6.12-4-14.74-6.01-25.86-6.01-8.68,0-17.13,1.12-25.36,3.34-8.23,2.23-15.58,4.9-22.03,8.01-2.23-1.78-4.23-4.22-6.01-7.34-1.78-3.11-2.67-6.34-2.67-9.68,0-8.01,4.45-13.9,13.35-17.69,6.23-2.89,13.52-5.01,21.86-6.34,8.34-1.33,16.63-2,24.86-2Zm1.67,136.16c6.67,0,12.68-.67,18.02-2s9.23-2.78,11.68-4.34v-38.04l-33.04,3.34c-9.13.67-16.08,2.62-20.86,5.84-4.79,3.23-7.18,7.96-7.18,14.18s2.56,11.57,7.68,15.35c5.12,3.79,13.02,5.67,23.69,5.67Z"/><path class="cls-3" d="m1098.51,262.84h-41.05v-120.14c1.78-.67,4.39-1.33,7.84-2,3.45-.67,7.06-1,10.85-1,7.79,0,13.46,1.39,17.02,4.17,3.56,2.78,5.34,7.73,5.34,14.85v104.12Zm-41.05-9.01h41.05v39.38c0,7.34,2.17,12.57,6.51,15.68,4.34,3.12,10.51,4.67,18.52,4.67,3.56,0,7.39-.44,11.51-1.33,4.11-.89,7.62-2,10.51-3.34,1.55,1.78,3,3.89,4.34,6.34,1.33,2.45,2,5.45,2,9.01,0,6.46-3.06,11.79-9.18,16.02-6.12,4.22-15.63,6.34-28.53,6.34-17.58,0-31.43-3.95-41.55-11.85-10.13-7.89-15.18-20.74-15.18-38.54v-42.38Zm25.03-34.04v-32.37h65.41c.89,1.56,1.84,3.79,2.84,6.67,1,2.89,1.5,5.9,1.5,9.01,0,5.56-1.33,9.74-4,12.51-2.67,2.78-6.12,4.17-10.35,4.17h-55.4Z"/><path class="cls-3" d="m1380.83,240.48c0,23.14-4.4,42.61-13.18,58.4-8.79,15.8-20.81,27.76-36.04,35.88-15.24,8.12-32.54,12.18-51.89,12.18s-36.32-4.06-51.56-12.18c-15.24-8.12-27.26-20.08-36.04-35.88-8.79-15.79-13.18-35.26-13.18-58.4s4.5-42.6,13.52-58.4c9.01-15.79,21.13-27.75,36.38-35.87,15.24-8.12,32.2-12.18,50.89-12.18s36.32,4.06,51.56,12.18c15.24,8.12,27.31,20.08,36.21,35.87,8.9,15.8,13.35,35.26,13.35,58.4Zm-43.05,0c0-23.36-5.29-41.16-15.85-53.4-10.57-12.23-24.64-18.35-42.22-18.35s-30.98,6.12-41.55,18.35c-10.57,12.24-15.85,30.03-15.85,53.4s5.22,41.5,15.68,53.73c10.46,12.24,24.47,18.35,42.05,18.35s31.59-6.12,42.05-18.35c10.45-12.23,15.68-30.14,15.68-53.73Z"/><path class="cls-3" d="m1499.97,253.16l6.34-23.69c17.13,0,31.42,2.34,42.88,7.01,11.46,4.67,20.08,11.07,25.86,19.19,5.78,8.12,8.68,17.63,8.68,28.53,0,21.14-7.79,36.77-23.36,46.89-15.58,10.13-37.6,15.18-66.08,15.18-5.56,0-11.63-.17-18.19-.5-6.56-.33-13.13-1.06-19.69-2.17-6.56-1.12-12.63-2.45-18.19-4-10.9-3.78-16.35-10.35-16.35-19.69v-163.86c0-4,1.17-7.17,3.5-9.51,2.34-2.34,5.39-4.06,9.18-5.17,7.56-2.45,16.35-4.17,26.36-5.17,10.01-1,20.36-1.5,31.04-1.5,26.7,0,47.39,4.67,62.07,14.02,14.68,9.34,22.03,23.58,22.03,42.72,0,10.24-2.84,19.19-8.51,26.86-5.67,7.68-14.13,13.63-25.36,17.85-11.24,4.23-25.31,6.34-42.21,6.34l-2.67-20.36c12.23,0,21.36-2.45,27.36-7.34,6.01-4.89,9.01-11.79,9.01-20.69s-3.45-15.29-10.34-19.86c-6.9-4.56-17.24-6.84-31.04-6.84-5.56,0-10.9.22-16.02.67-5.12.45-9.46,1-13.02,1.67v140.5c4.22,1.12,9.34,1.89,15.35,2.34,6.01.45,11.9.67,17.69.67,13.79,0,24.64-2.5,32.54-7.51,7.89-5,11.85-12.73,11.85-23.19,0-9.56-3.45-16.85-10.34-21.86-6.9-5.01-17.02-7.51-30.37-7.51Zm29.7-31.04v31.04h-80.76v-31.04h80.76Z"/><path class="cls-3" d="m1664.83,245.49h42.05v42.05c0,13.13-2.56,24.08-7.68,32.87-5.12,8.79-12.18,15.3-21.19,19.52s-19.52,6.34-31.54,6.34-21.58-1.83-28.7-5.51c-7.12-3.67-10.68-9.4-10.68-17.19,0-3.78.67-7.06,2-9.84,1.33-2.78,2.67-4.95,4-6.51,3.78,1.33,7.62,2.39,11.51,3.17,3.89.78,7.95,1.17,12.18,1.17,9.56,0,16.63-2.28,21.19-6.84,4.56-4.56,6.84-11.73,6.84-21.52v-37.71Zm42.05,16.35h-42.05v-122.48c1.78-.44,4.56-1,8.34-1.67,3.78-.67,7.45-1,11.01-1,7.79,0,13.52,1.39,17.19,4.17,3.67,2.78,5.51,7.96,5.51,15.52v105.46Z"/><path class="cls-3" d="m1799.31,273.19l-41.38-.33v-111.13c0-6.89,2.05-12.35,6.17-16.35,4.11-4,9.62-6.01,16.52-6.01,3.78,0,7.45.33,11.01,1,3.56.67,6.12,1.23,7.67,1.67v131.15Zm-41.38-65.41h41.38v131.82c-1.56.45-4.12,1-7.67,1.67-3.56.67-7.23,1-11.01,1-6.9,0-12.41-2.05-16.52-6.17-4.12-4.11-6.17-9.51-6.17-16.19v-112.13Zm22.69-34.37v-34.04h110.46c1.11,1.56,2.11,3.79,3,6.67.89,2.89,1.33,6.01,1.33,9.34,0,5.79-1.28,10.24-3.84,13.35-2.56,3.12-6.29,4.67-11.18,4.67h-99.78Zm0,81.76v-33.37h100.45c1.11,1.56,2.17,3.79,3.17,6.67,1,2.89,1.5,6.01,1.5,9.34,0,5.79-1.33,10.13-4,13.02-2.67,2.89-6.34,4.34-11.01,4.34h-90.1Zm0,87.1v-33.71h112.13c.89,1.56,1.84,3.79,2.84,6.67,1,2.89,1.5,6.12,1.5,9.68,0,5.79-1.33,10.13-4,13.01-2.67,2.89-6.34,4.34-11.01,4.34h-101.45Z"/><path class="cls-3" d="m2089.31,165.06c0,4.23-1.17,7.96-3.5,11.18-2.34,3.23-5.06,5.73-8.18,7.51-5.56-3.78-12.01-7.23-19.36-10.35-7.34-3.11-16.35-4.67-27.03-4.67-12.46,0-23.42,2.73-32.87,8.18-9.46,5.45-16.8,13.57-22.03,24.36-5.23,10.79-7.84,23.98-7.84,39.55,0,23.58,5.89,41.44,17.69,53.56,11.79,12.13,27.47,18.19,47.05,18.19,10.46,0,19.46-1.44,27.03-4.34,7.56-2.89,14.13-6.23,19.69-10.01,2.89,1.78,5.39,4.4,7.51,7.84,2.11,3.45,3.17,7.29,3.17,11.51,0,3.79-.95,7.23-2.84,10.34-1.89,3.12-5.17,5.9-9.84,8.34-4.67,2.67-11.07,5.12-19.19,7.34-8.12,2.22-18.3,3.34-30.54,3.34-19.14,0-36.54-3.84-52.23-11.51-15.68-7.67-28.09-19.36-37.21-35.04-9.12-15.68-13.68-35.54-13.68-59.57s4.56-42.94,13.68-58.73c9.12-15.79,21.36-27.75,36.71-35.87,15.35-8.12,32.15-12.18,50.39-12.18,12.9,0,24.08,1.45,33.54,4.34,9.45,2.89,16.8,6.67,22.03,11.35,5.22,4.67,7.84,9.79,7.84,15.35Z"/><path class="cls-3" d="m2213.11,139.36l.67,34.37h-93.78c-1.12-1.78-2.12-4.11-3-7.01-.89-2.89-1.33-6.12-1.33-9.68,0-6.01,1.33-10.46,4-13.35,2.67-2.89,6.34-4.34,11.01-4.34h82.43Zm-36.38,25.36h42.05v176.54c-1.78.67-4.5,1.28-8.18,1.83-3.67.55-7.4.83-11.18.83-8.23,0-14.07-1.5-17.52-4.5-3.45-3-5.17-8.06-5.17-15.18v-159.52Zm6.67,9.01l-1-34.37h93.77c1.11,1.56,2.11,3.84,3,6.84.89,3,1.33,6.17,1.33,9.51,0,5.79-1.33,10.24-4,13.35-2.67,3.12-6.34,4.67-11.01,4.67h-82.09Z"/><path class="cls-3" d="m2356.27,256.83h-42.05v-117.47c1.78-.44,4.56-1,8.34-1.67,3.78-.67,7.56-1,11.35-1,7.79,0,13.46,1.39,17.02,4.17,3.56,2.78,5.34,7.96,5.34,15.52v100.45Zm-42.05-48.72h42.05v133.15c-1.78.67-4.45,1.28-8.01,1.83-3.56.55-7.34.83-11.35.83-8.01,0-13.8-1.5-17.35-4.5-3.56-3-5.34-8.06-5.34-15.18v-116.13Z"/><path class="cls-3" d="m2511.45,337.26c-2,1.78-5.4,3.39-10.18,4.84-4.79,1.44-10.07,2.17-15.85,2.17-6.67,0-12.46-.95-17.35-2.84-4.9-1.89-8.23-4.72-10.01-8.51-3.34-6.45-7.29-15.13-11.85-26.03-4.56-10.9-9.46-23.19-14.68-36.88-5.23-13.68-10.4-27.75-15.52-42.22-5.12-14.46-9.84-28.64-14.18-42.55-4.34-13.9-8.07-26.42-11.18-37.54,2.22-2.45,5.45-4.72,9.68-6.84,4.22-2.11,8.79-3.17,13.68-3.17,6.23,0,11.12,1.39,14.68,4.17,3.56,2.78,6.23,7.4,8.01,13.85,8.01,25.59,15.9,50.28,23.69,74.09,7.79,23.81,16.02,48.06,24.7,72.75h1.67c5.34-15.35,10.85-31.92,16.52-49.72,5.67-17.8,11.23-36.15,16.69-55.06,5.45-18.91,10.4-37.38,14.85-55.4,2.67-1.33,5.62-2.45,8.84-3.34,3.22-.89,6.73-1.33,10.51-1.33,6.01,0,11.07,1.45,15.18,4.34,4.11,2.89,6.17,7.34,6.17,13.35,0,4-1.17,10.63-3.5,19.86-2.34,9.23-5.51,19.97-9.51,32.2-4,12.24-8.34,24.92-13.02,38.04-4.67,13.13-9.46,25.86-14.35,38.21-4.9,12.35-9.4,23.25-13.52,32.71-4.12,9.46-7.51,16.41-10.18,20.86Z"/><path class="cls-3" d="m2652.28,273.19l-41.38-.33v-111.13c0-6.89,2.05-12.35,6.17-16.35,4.11-4,9.62-6.01,16.52-6.01,3.78,0,7.45.33,11.01,1,3.56.67,6.12,1.23,7.67,1.67v131.15Zm-41.38-65.41h41.38v131.82c-1.56.45-4.12,1-7.67,1.67-3.56.67-7.23,1-11.01,1-6.9,0-12.41-2.05-16.52-6.17-4.12-4.11-6.17-9.51-6.17-16.19v-112.13Zm22.69-34.37v-34.04h110.46c1.11,1.56,2.11,3.79,3,6.67.89,2.89,1.33,6.01,1.33,9.34,0,5.79-1.28,10.24-3.84,13.35-2.56,3.12-6.29,4.67-11.18,4.67h-99.78Zm0,81.76v-33.37h100.45c1.11,1.56,2.17,3.79,3.17,6.67,1,2.89,1.5,6.01,1.5,9.34,0,5.79-1.33,10.13-4,13.02-2.67,2.89-6.34,4.34-11.01,4.34h-90.1Zm0,87.1v-33.71h112.13c.89,1.56,1.84,3.79,2.84,6.67,1,2.89,1.5,6.12,1.5,9.68,0,5.79-1.33,10.13-4,13.01-2.67,2.89-6.34,4.34-11.01,4.34h-101.45Z"/></svg>